<?xml version="1.0" encoding="UTF-8"?>
<svg width="74px" height="42px" viewBox="0 0 74 42" version="1.1" xmlns="http://www.w3.org/2000/svg" xmlns:xlink="http://www.w3.org/1999/xlink">
    <!-- Generator: Sketch 54.1 (76490) - https://sketchapp.com -->
    <title>bill</title>
    <desc>Created with Sketch.</desc>
    <defs>
        <path d="M36.138,27.978 C34.8619936,27.8606661 33.787671,27.4866698 32.915,26.856 C32.042329,26.2253302 31.4153352,25.3526722 31.034,24.238 L32.662,23.402 C32.8233341,24.194004 33.2266634,24.8649972 33.872,25.415 C34.5173366,25.9650027 35.2726623,26.3206659 36.138,26.482 L36.138,21.378 C35.1846619,21.1726656 34.3963365,20.9490012 33.773,20.707 C33.1496636,20.4649988 32.6326687,20.1020024 32.222,19.618 C31.8113313,19.1339976 31.606,18.4886707 31.606,17.682 C31.606,16.948663 31.7893315,16.2813363 32.156,15.68 C32.5226685,15.0786637 33.0469966,14.5836686 33.729,14.195 C34.4110034,13.8063314 35.2139954,13.5753337 36.138,13.502 L36.138,11.28 L37.656,11.28 L37.656,13.524 C38.7413388,13.6120004 39.6396631,13.9016642 40.351,14.393 C41.0623369,14.8843358 41.6746641,15.6066619 42.188,16.56 L40.758,17.682 C40.3913315,16.8313291 39.9733357,16.2006687 39.504,15.79 C39.0346643,15.3793313 38.4186705,15.1226672 37.656,15.02 L37.656,20.19 C38.6093381,20.3953344 39.3976636,20.6189988 40.021,20.861 C40.6443365,21.1030012 41.1649979,21.4733308 41.583,21.972 C42.0010021,22.4706692 42.21,23.1379958 42.21,23.974 C42.21,25.103339 41.7993374,26.0236631 40.978,26.735 C40.1566626,27.4463369 39.0493403,27.8606661 37.656,27.978 L37.656,30.2 L36.138,30.2 L36.138,27.978 Z M36.138,14.998 C35.1993286,15.0860004 34.4880024,15.3499978 34.004,15.79 C33.5199976,16.2300022 33.278,16.816663 33.278,17.55 C33.278,18.2100033 33.5236642,18.708665 34.015,19.046 C34.5063358,19.383335 35.2139954,19.6619989 36.138,19.882 L36.138,14.998 Z M37.656,26.526 C39.5920097,26.3646659 40.56,25.5580073 40.56,24.106 C40.56,23.43133 40.3070025,22.9180018 39.801,22.566 C39.2949975,22.2139982 38.5800046,21.9280011 37.656,21.708 L37.656,26.526 Z" id="path-1"></path>
    </defs>
    <g id="Update" stroke="none" stroke-width="1" fill="none" fill-rule="evenodd">
        <rect id="Rectangle" stroke="#A7C292" stroke-width="2" fill="#F8FAF7" stroke-linejoin="round" x="1" y="1" width="72" height="40"></rect>
        <path d="M42.9309856,4 L62.3414114,4 C62.1203084,4.62555785 62,5.29872915 62,6 C62,9.3137085 64.6862915,12 68,12 C68.7012708,12 69.3744421,11.8796916 70,11.6585886 L70,30.3414114 C69.3744421,30.1203084 68.7012708,30 68,30 C64.6862915,30 62,32.6862915 62,36 C62,36.7012708 62.1203084,37.3744421 62.3414114,38 L42.9309856,38 L42.9309856,38 M31.0690144,38 L11.6585886,38 C11.8796916,37.3744421 12,36.7012708 12,36 C12,32.6862915 9.3137085,30 6,30 C5.29872915,30 4.62555785,30.1203084 4,30.3414114 L4,11.6585886 C4.62555785,11.8796916 5.29872915,12 6,12 C9.3137085,12 12,9.3137085 12,6 C12,5.29872915 11.8796916,4.62555785 11.6585886,4 L31.0690144,4" id="Shape" stroke="#C9DBBB" stroke-linejoin="round"></path>
        <circle id="Oval" stroke="#C9DBBB" stroke-linejoin="round" cx="37" cy="21" r="15"></circle>
        <circle id="Oval" stroke="#C9DBBB" stroke-linejoin="round" cx="61" cy="21" r="4"></circle>
        <circle id="Oval-Copy-3" stroke="#C9DBBB" stroke-linejoin="round" cx="13" cy="21" r="4"></circle>
        <g id="$" fill-rule="nonzero">
            <use fill="#FFFFFF" xlink:href="#path-1"></use>
            <use fill="#A7C292" xlink:href="#path-1"></use>
        </g>
    </g>
</svg>