<?xml version="1.0" encoding="utf-8"?>
<!-- Generator: Adobe Illustrator 23.0.1, SVG Export Plug-In . SVG Version: 6.00 Build 0)  -->
<svg version="1.1" id="Layer_1" xmlns="http://www.w3.org/2000/svg" xmlns:xlink="http://www.w3.org/1999/xlink" x="0px" y="0px"
	 viewBox="0 0 47 60" style="enable-background:new 0 0 47 60;" xml:space="preserve">
<path d="M30.9,42.7c0.9,0.6,2.2,0.3,2.8-0.6l7-11c0.4-0.7,0.4-1.5,0-2.2l-7-10c-0.6-0.9-1.9-1.1-2.8-0.5c-0.9,0.6-1.1,1.9-0.5,2.8
	l4.8,6.9H15c-1.1,0-2,0.9-2,2s0.9,2,2,2h20.4l-5,7.9C29.8,40.9,30,42.1,30.9,42.7z" fill="#163053"/>
<path d="M44,26c1.7,0,3-1.3,3-3V7c0-3.9-3.1-7-7-7H7C3.1,0,0,3.1,0,7v46c0,3.9,3.1,7,7,7l0,0h33c3.9,0,7-3.1,7-7l0,0V37
	c0-1.7-1.3-3-3-3s-3,1.3-3,3v16c0,0.6-0.4,1-1,1H7c-0.6,0-1-0.4-1-1V7c0-0.6,0.4-1,1-1h33c0.6,0,1,0.4,1,1v16C41,24.7,42.3,26,44,26
	z" fill="#163053"/>
</svg>
