<?xml version="1.0" encoding="UTF-8"?>
<svg width="46px" height="50px" viewBox="0 0 46 50" xmlns="http://www.w3.org/2000/svg" xmlns:xlink="http://www.w3.org/1999/xlink" version="1.1">
 <!-- Generated by Pixelmator Pro 1.3 -->
 <path id="path" d="M6.929 10.429 C-1.946 19.304 -1.946 33.694 6.929 42.57 15.805 51.446 30.195 51.446 39.071 42.57 47.946 33.694 47.946 19.304 39.071 10.429 30.194 1.554 15.805 1.554 6.929 10.429 Z M35.856 39.356 C28.755 46.456 17.243 46.456 10.143 39.356 3.042 32.255 3.042 20.743 10.143 13.643 17.243 6.543 28.755 6.543 35.856 13.643 42.956 20.744 42.956 32.256 35.856 39.356 Z" fill="#163053" fill-opacity="1" stroke="none"/>
 <path id="path-1" d="M20.982 13.147 C21.524 12.564 22.244 12.271 23.133 12.271 24.209 12.271 24.93 12.646 25.293 13.39 25.658 14.136 25.837 15.21 25.837 16.614 25.837 17.442 25.795 18.28 25.705 19.134 L24.9 28.398 C24.812 29.502 24.623 30.347 24.337 30.936 24.045 31.526 23.573 31.822 22.91 31.822 22.229 31.822 21.762 31.535 21.497 30.964 21.233 30.395 21.046 29.526 20.934 28.36 L20.33 19.359 C20.218 17.604 20.161 16.345 20.161 15.581 20.162 14.541 20.434 13.729 20.982 13.147 Z" fill="#163053" fill-opacity="1" stroke="none"/>
 <path id="path-2" d="M24.996 39.976 C24.429 40.478 23.775 40.729 23.019 40.729 22.254 40.729 21.588 40.481 21.018 39.985 20.448 39.491 20.16 38.799 20.16 37.91 20.16 37.134 20.433 36.472 20.979 35.926 21.524 35.382 22.193 35.112 22.984 35.112 23.775 35.112 24.443 35.383 25.004 35.926 25.563 36.472 25.838 37.135 25.838 37.91 25.838 38.787 25.559 39.475 24.996 39.976 Z" fill="#163053" fill-opacity="1" stroke="none"/>
</svg>
